<mxfile host="65bd71144e">
    <diagram id="yf5d98KvZUOjRP-1oyAv" name="Page-1">
        <mxGraphModel dx="1410" dy="519" grid="1" gridSize="10" guides="1" tooltips="1" connect="1" arrows="1" fold="1" page="1" pageScale="1" pageWidth="1100" pageHeight="850" math="0" shadow="0">
            <root>
                <mxCell id="0"/>
                <mxCell id="1" parent="0"/>
                <mxCell id="2" value="ImageCapture" style="rounded=0;whiteSpace=wrap;html=1;" vertex="1" parent="1">
                    <mxGeometry x="400" y="40" width="120" height="360" as="geometry"/>
                </mxCell>
                <mxCell id="4" value="CNN" style="rounded=0;whiteSpace=wrap;html=1;" vertex="1" parent="1">
                    <mxGeometry x="760" y="40" width="120" height="440" as="geometry"/>
                </mxCell>
                <mxCell id="5" value="VT512 Top" style="rounded=0;whiteSpace=wrap;html=1;" vertex="1" parent="1">
                    <mxGeometry x="40" y="40" width="120" height="440" as="geometry"/>
                </mxCell>
                <mxCell id="21" value="" style="group" vertex="1" connectable="0" parent="1">
                    <mxGeometry x="160" y="90" width="240" height="30" as="geometry"/>
                </mxCell>
                <mxCell id="19" value="" style="endArrow=classic;html=1;rounded=0;" edge="1" parent="21">
                    <mxGeometry width="50" height="50" relative="1" as="geometry">
                        <mxPoint y="30" as="sourcePoint"/>
                        <mxPoint x="240" y="30" as="targetPoint"/>
                    </mxGeometry>
                </mxCell>
                <mxCell id="20" value="&lt;div style=&quot;color: rgb(253, 167, 251); background-color: rgb(1, 22, 39); font-family: Menlo, Consolas, &amp;quot;DejaVu Sans Mono&amp;quot;, monospace, Consolas, &amp;quot;Courier New&amp;quot;, monospace; font-size: 15px; line-height: 20px;&quot;&gt;&lt;div style=&quot;line-height: 20px;&quot;&gt;wb_rst_i&lt;/div&gt;&lt;/div&gt;" style="text;html=1;strokeColor=none;fillColor=none;align=center;verticalAlign=middle;whiteSpace=wrap;rounded=0;" vertex="1" parent="21">
                    <mxGeometry x="60" width="120" height="30" as="geometry"/>
                </mxCell>
                <mxCell id="22" value="" style="group" vertex="1" connectable="0" parent="1">
                    <mxGeometry x="160" y="410" width="600" height="30" as="geometry"/>
                </mxCell>
                <mxCell id="17" value="" style="endArrow=classic;html=1;rounded=0;" edge="1" parent="22">
                    <mxGeometry width="50" height="50" relative="1" as="geometry">
                        <mxPoint y="30" as="sourcePoint"/>
                        <mxPoint x="600" y="30" as="targetPoint"/>
                    </mxGeometry>
                </mxCell>
                <mxCell id="18" value="&lt;div style=&quot;color: rgb(253, 167, 251); background-color: rgb(1, 22, 39); font-family: Menlo, Consolas, &amp;quot;DejaVu Sans Mono&amp;quot;, monospace, Consolas, &amp;quot;Courier New&amp;quot;, monospace; font-size: 15px; line-height: 20px;&quot;&gt;wb_clk_i&lt;/div&gt;" style="text;html=1;strokeColor=none;fillColor=none;align=center;verticalAlign=middle;whiteSpace=wrap;rounded=0;" vertex="1" parent="22">
                    <mxGeometry x="150" width="300" height="30" as="geometry"/>
                </mxCell>
                <mxCell id="23" value="" style="group" vertex="1" connectable="0" parent="1">
                    <mxGeometry x="160" y="130" width="240" height="30" as="geometry"/>
                </mxCell>
                <mxCell id="24" value="" style="endArrow=classic;html=1;rounded=0;" edge="1" parent="23">
                    <mxGeometry width="50" height="50" relative="1" as="geometry">
                        <mxPoint y="30" as="sourcePoint"/>
                        <mxPoint x="240" y="30" as="targetPoint"/>
                    </mxGeometry>
                </mxCell>
                <mxCell id="25" value="&lt;div style=&quot;color: rgb(253, 167, 251); background-color: rgb(1, 22, 39); font-family: Menlo, Consolas, &amp;quot;DejaVu Sans Mono&amp;quot;, monospace, Consolas, &amp;quot;Courier New&amp;quot;, monospace; font-size: 15px; line-height: 20px;&quot;&gt;&lt;div style=&quot;line-height: 20px;&quot;&gt;&lt;div style=&quot;line-height: 20px;&quot;&gt;wbs_stb_i&lt;/div&gt;&lt;/div&gt;&lt;/div&gt;" style="text;html=1;strokeColor=none;fillColor=none;align=center;verticalAlign=middle;whiteSpace=wrap;rounded=0;" vertex="1" parent="23">
                    <mxGeometry x="60" width="120" height="30" as="geometry"/>
                </mxCell>
                <mxCell id="27" value="" style="group" vertex="1" connectable="0" parent="1">
                    <mxGeometry x="160" y="170" width="240" height="30" as="geometry"/>
                </mxCell>
                <mxCell id="28" value="" style="endArrow=classic;html=1;rounded=0;" edge="1" parent="27">
                    <mxGeometry width="50" height="50" relative="1" as="geometry">
                        <mxPoint y="30" as="sourcePoint"/>
                        <mxPoint x="240" y="30" as="targetPoint"/>
                    </mxGeometry>
                </mxCell>
                <mxCell id="29" value="&lt;div style=&quot;color: rgb(253, 167, 251); background-color: rgb(1, 22, 39); font-family: Menlo, Consolas, &amp;quot;DejaVu Sans Mono&amp;quot;, monospace, Consolas, &amp;quot;Courier New&amp;quot;, monospace; font-size: 15px; line-height: 20px;&quot;&gt;&lt;div style=&quot;line-height: 20px;&quot;&gt;&lt;div style=&quot;line-height: 20px;&quot;&gt;&lt;div style=&quot;line-height: 20px;&quot;&gt;wbs_cyc_i&lt;/div&gt;&lt;/div&gt;&lt;/div&gt;&lt;/div&gt;" style="text;html=1;strokeColor=none;fillColor=none;align=center;verticalAlign=middle;whiteSpace=wrap;rounded=0;" vertex="1" parent="27">
                    <mxGeometry x="60" width="120" height="30" as="geometry"/>
                </mxCell>
                <mxCell id="37" value="" style="group" vertex="1" connectable="0" parent="1">
                    <mxGeometry x="160" y="210" width="240" height="30" as="geometry"/>
                </mxCell>
                <mxCell id="38" value="" style="endArrow=classic;html=1;rounded=0;" edge="1" parent="37">
                    <mxGeometry width="50" height="50" relative="1" as="geometry">
                        <mxPoint y="30" as="sourcePoint"/>
                        <mxPoint x="240" y="30" as="targetPoint"/>
                    </mxGeometry>
                </mxCell>
                <mxCell id="39" value="&lt;div style=&quot;color: rgb(253, 167, 251); background-color: rgb(1, 22, 39); font-family: Menlo, Consolas, &amp;quot;DejaVu Sans Mono&amp;quot;, monospace, Consolas, &amp;quot;Courier New&amp;quot;, monospace; font-size: 15px; line-height: 20px;&quot;&gt;&lt;div style=&quot;line-height: 20px;&quot;&gt;&lt;div style=&quot;line-height: 20px;&quot;&gt;&lt;div style=&quot;line-height: 20px;&quot;&gt;&lt;div style=&quot;line-height: 20px;&quot;&gt;wbs_we_i&lt;/div&gt;&lt;/div&gt;&lt;/div&gt;&lt;/div&gt;&lt;/div&gt;" style="text;html=1;strokeColor=none;fillColor=none;align=center;verticalAlign=middle;whiteSpace=wrap;rounded=0;" vertex="1" parent="37">
                    <mxGeometry x="60" width="120" height="30" as="geometry"/>
                </mxCell>
                <mxCell id="40" value="" style="group" vertex="1" connectable="0" parent="1">
                    <mxGeometry x="160" y="250" width="240" height="30" as="geometry"/>
                </mxCell>
                <mxCell id="41" value="" style="endArrow=classic;html=1;rounded=0;" edge="1" parent="40">
                    <mxGeometry width="50" height="50" relative="1" as="geometry">
                        <mxPoint y="30" as="sourcePoint"/>
                        <mxPoint x="240" y="30" as="targetPoint"/>
                    </mxGeometry>
                </mxCell>
                <mxCell id="42" value="&lt;div style=&quot;color: rgb(253, 167, 251); background-color: rgb(1, 22, 39); font-family: Menlo, Consolas, &amp;quot;DejaVu Sans Mono&amp;quot;, monospace, Consolas, &amp;quot;Courier New&amp;quot;, monospace; font-size: 15px; line-height: 20px;&quot;&gt;&lt;div style=&quot;line-height: 20px;&quot;&gt;&lt;div style=&quot;line-height: 20px;&quot;&gt;&lt;div style=&quot;line-height: 20px;&quot;&gt;&lt;div style=&quot;line-height: 20px;&quot;&gt;&lt;div style=&quot;line-height: 20px;&quot;&gt;&lt;div style=&quot;line-height: 20px;&quot;&gt;[&lt;span style=&quot;color: #8dec95;&quot;&gt;31&lt;/span&gt;&lt;span style=&quot;color: #00bff9;&quot;&gt;:&lt;/span&gt;&lt;span style=&quot;color: #8dec95;&quot;&gt;0&lt;/span&gt;] wbs_dat_i&lt;/div&gt;&lt;/div&gt;&lt;/div&gt;&lt;/div&gt;&lt;/div&gt;&lt;/div&gt;&lt;/div&gt;" style="text;html=1;strokeColor=none;fillColor=none;align=center;verticalAlign=middle;whiteSpace=wrap;rounded=0;" vertex="1" parent="40">
                    <mxGeometry x="12" width="216" height="30" as="geometry"/>
                </mxCell>
                <mxCell id="46" value="" style="group" vertex="1" connectable="0" parent="1">
                    <mxGeometry x="520" y="90" width="240" height="30" as="geometry"/>
                </mxCell>
                <mxCell id="47" value="" style="endArrow=classic;html=1;rounded=0;" edge="1" parent="46">
                    <mxGeometry width="50" height="50" relative="1" as="geometry">
                        <mxPoint y="30" as="sourcePoint"/>
                        <mxPoint x="240" y="30" as="targetPoint"/>
                    </mxGeometry>
                </mxCell>
                <mxCell id="48" value="&lt;div style=&quot;background-color: rgb(1, 22, 39); font-family: Menlo, Consolas, &amp;quot;DejaVu Sans Mono&amp;quot;, monospace, Consolas, &amp;quot;Courier New&amp;quot;, monospace; font-size: 15px; line-height: 20px;&quot;&gt;&lt;div style=&quot;line-height: 20px;&quot;&gt;&lt;div style=&quot;line-height: 20px;&quot;&gt;&lt;div style=&quot;line-height: 20px;&quot;&gt;&lt;div style=&quot;line-height: 20px;&quot;&gt;&lt;div style=&quot;line-height: 20px;&quot;&gt;&lt;div style=&quot;line-height: 20px;&quot;&gt;&lt;div style=&quot;line-height: 20px;&quot;&gt;&lt;div style=&quot;line-height: 20px;&quot;&gt;&lt;font color=&quot;#fda7fb&quot;&gt;[&lt;/font&gt;&lt;font color=&quot;#8dec95&quot;&gt;31&lt;/font&gt;&lt;span style=&quot;color: rgb(0, 191, 249);&quot;&gt;:&lt;/span&gt;&lt;span style=&quot;color: rgb(141, 236, 149);&quot;&gt;0&lt;/span&gt;&lt;font color=&quot;#fda7fb&quot;&gt;] image_data_out&lt;/font&gt;&lt;/div&gt;&lt;/div&gt;&lt;/div&gt;&lt;/div&gt;&lt;/div&gt;&lt;/div&gt;&lt;/div&gt;&lt;/div&gt;&lt;/div&gt;" style="text;html=1;strokeColor=none;fillColor=none;align=center;verticalAlign=middle;whiteSpace=wrap;rounded=0;" vertex="1" parent="46">
                    <mxGeometry x="12" width="216" height="30" as="geometry"/>
                </mxCell>
                <mxCell id="49" value="" style="group" vertex="1" connectable="0" parent="1">
                    <mxGeometry x="520" y="130" width="240" height="30" as="geometry"/>
                </mxCell>
                <mxCell id="50" value="" style="endArrow=classic;html=1;rounded=0;" edge="1" parent="49">
                    <mxGeometry width="50" height="50" relative="1" as="geometry">
                        <mxPoint y="30" as="sourcePoint"/>
                        <mxPoint x="240" y="30" as="targetPoint"/>
                    </mxGeometry>
                </mxCell>
                <mxCell id="51" value="&lt;div style=&quot;background-color: rgb(1, 22, 39); font-family: Menlo, Consolas, &amp;quot;DejaVu Sans Mono&amp;quot;, monospace, Consolas, &amp;quot;Courier New&amp;quot;, monospace; font-size: 15px; line-height: 20px;&quot;&gt;&lt;div style=&quot;line-height: 20px;&quot;&gt;&lt;div style=&quot;line-height: 20px;&quot;&gt;&lt;div style=&quot;line-height: 20px;&quot;&gt;&lt;div style=&quot;line-height: 20px;&quot;&gt;&lt;div style=&quot;line-height: 20px;&quot;&gt;&lt;div style=&quot;line-height: 20px;&quot;&gt;&lt;div style=&quot;line-height: 20px;&quot;&gt;&lt;div style=&quot;line-height: 20px;&quot;&gt;&lt;font color=&quot;#fda7fb&quot;&gt;[&lt;/font&gt;&lt;font color=&quot;#8dec95&quot;&gt;9&lt;/font&gt;&lt;span style=&quot;color: rgb(0, 191, 249);&quot;&gt;:&lt;/span&gt;&lt;span style=&quot;color: rgb(141, 236, 149);&quot;&gt;0&lt;/span&gt;&lt;font color=&quot;#fda7fb&quot;&gt;]&amp;nbsp;&lt;/font&gt;&lt;span style=&quot;color: rgb(253, 167, 251);&quot;&gt;image_size&lt;/span&gt;&lt;/div&gt;&lt;/div&gt;&lt;/div&gt;&lt;/div&gt;&lt;/div&gt;&lt;/div&gt;&lt;/div&gt;&lt;/div&gt;&lt;/div&gt;" style="text;html=1;strokeColor=none;fillColor=none;align=center;verticalAlign=middle;whiteSpace=wrap;rounded=0;" vertex="1" parent="49">
                    <mxGeometry x="12" width="216" height="30" as="geometry"/>
                </mxCell>
                <mxCell id="52" value="" style="group" vertex="1" connectable="0" parent="1">
                    <mxGeometry x="520" y="50" width="240" height="30" as="geometry"/>
                </mxCell>
                <mxCell id="53" value="" style="endArrow=classic;html=1;rounded=0;" edge="1" parent="52">
                    <mxGeometry width="50" height="50" relative="1" as="geometry">
                        <mxPoint y="30" as="sourcePoint"/>
                        <mxPoint x="240" y="30" as="targetPoint"/>
                    </mxGeometry>
                </mxCell>
                <mxCell id="54" value="&lt;div style=&quot;background-color: rgb(1, 22, 39); font-family: Menlo, Consolas, &amp;quot;DejaVu Sans Mono&amp;quot;, monospace, Consolas, &amp;quot;Courier New&amp;quot;, monospace; font-size: 15px; line-height: 20px;&quot;&gt;&lt;div style=&quot;line-height: 20px;&quot;&gt;&lt;div style=&quot;line-height: 20px;&quot;&gt;&lt;div style=&quot;line-height: 20px;&quot;&gt;&lt;div style=&quot;line-height: 20px;&quot;&gt;&lt;div style=&quot;line-height: 20px;&quot;&gt;&lt;div style=&quot;line-height: 20px;&quot;&gt;&lt;div style=&quot;line-height: 20px;&quot;&gt;&lt;div style=&quot;line-height: 20px;&quot;&gt;&lt;span style=&quot;color: rgb(253, 167, 251);&quot;&gt;size_detection_done&lt;/span&gt;&lt;/div&gt;&lt;/div&gt;&lt;/div&gt;&lt;/div&gt;&lt;/div&gt;&lt;/div&gt;&lt;/div&gt;&lt;/div&gt;&lt;/div&gt;" style="text;html=1;strokeColor=none;fillColor=none;align=center;verticalAlign=middle;whiteSpace=wrap;rounded=0;" vertex="1" parent="52">
                    <mxGeometry x="12" width="216" height="30" as="geometry"/>
                </mxCell>
                <mxCell id="56" value="" style="group" vertex="1" connectable="0" parent="1">
                    <mxGeometry x="160" y="50" width="240" height="30" as="geometry"/>
                </mxCell>
                <mxCell id="57" value="" style="endArrow=classic;html=1;rounded=0;" edge="1" parent="56">
                    <mxGeometry width="50" height="50" relative="1" as="geometry">
                        <mxPoint y="30" as="sourcePoint"/>
                        <mxPoint x="240" y="30" as="targetPoint"/>
                    </mxGeometry>
                </mxCell>
                <mxCell id="58" value="&lt;div style=&quot;color: rgb(253, 167, 251); background-color: rgb(1, 22, 39); font-family: Menlo, Consolas, &amp;quot;DejaVu Sans Mono&amp;quot;, monospace, Consolas, &amp;quot;Courier New&amp;quot;, monospace; font-size: 15px; line-height: 20px;&quot;&gt;wb_clk_i&lt;/div&gt;" style="text;html=1;strokeColor=none;fillColor=none;align=center;verticalAlign=middle;whiteSpace=wrap;rounded=0;" vertex="1" parent="56">
                    <mxGeometry x="60" width="120" height="30" as="geometry"/>
                </mxCell>
                <mxCell id="61" value="" style="group" vertex="1" connectable="0" parent="1">
                    <mxGeometry x="160" y="290" width="240" height="30" as="geometry"/>
                </mxCell>
                <mxCell id="45" value="&lt;div style=&quot;color: rgb(253, 167, 251); background-color: rgb(1, 22, 39); font-family: Menlo, Consolas, &amp;quot;DejaVu Sans Mono&amp;quot;, monospace, Consolas, &amp;quot;Courier New&amp;quot;, monospace; font-size: 15px; line-height: 20px;&quot;&gt;&lt;div style=&quot;line-height: 20px;&quot;&gt;&lt;div style=&quot;line-height: 20px;&quot;&gt;&lt;div style=&quot;line-height: 20px;&quot;&gt;&lt;div style=&quot;line-height: 20px;&quot;&gt;&lt;div style=&quot;line-height: 20px;&quot;&gt;&lt;div style=&quot;line-height: 20px;&quot;&gt;&lt;div style=&quot;line-height: 20px;&quot;&gt;[&lt;span style=&quot;color: #8dec95;&quot;&gt;31&lt;/span&gt;&lt;span style=&quot;color: #00bff9;&quot;&gt;:&lt;/span&gt;&lt;span style=&quot;color: #8dec95;&quot;&gt;0&lt;/span&gt;]&amp;nbsp;&lt;span style=&quot;&quot;&gt;wbs_dat_o&lt;/span&gt;&lt;/div&gt;&lt;/div&gt;&lt;/div&gt;&lt;/div&gt;&lt;/div&gt;&lt;/div&gt;&lt;/div&gt;&lt;/div&gt;" style="text;html=1;strokeColor=none;fillColor=none;align=center;verticalAlign=middle;whiteSpace=wrap;rounded=0;" vertex="1" parent="61">
                    <mxGeometry x="12" width="216" height="30" as="geometry"/>
                </mxCell>
                <mxCell id="60" value="" style="endArrow=classic;html=1;rounded=0;" edge="1" parent="61">
                    <mxGeometry width="50" height="50" relative="1" as="geometry">
                        <mxPoint x="240" y="30" as="sourcePoint"/>
                        <mxPoint y="30" as="targetPoint"/>
                    </mxGeometry>
                </mxCell>
                <mxCell id="62" value="" style="group" vertex="1" connectable="0" parent="1">
                    <mxGeometry x="160" y="330" width="240" height="30" as="geometry"/>
                </mxCell>
                <mxCell id="63" value="&lt;div style=&quot;color: rgb(253, 167, 251); background-color: rgb(1, 22, 39); font-family: Menlo, Consolas, &amp;quot;DejaVu Sans Mono&amp;quot;, monospace, Consolas, &amp;quot;Courier New&amp;quot;, monospace; font-size: 15px; line-height: 20px;&quot;&gt;&lt;div style=&quot;line-height: 20px;&quot;&gt;&lt;div style=&quot;line-height: 20px;&quot;&gt;&lt;div style=&quot;line-height: 20px;&quot;&gt;&lt;div style=&quot;line-height: 20px;&quot;&gt;&lt;div style=&quot;line-height: 20px;&quot;&gt;&lt;div style=&quot;line-height: 20px;&quot;&gt;&lt;div style=&quot;line-height: 20px;&quot;&gt;&lt;div style=&quot;line-height: 20px;&quot;&gt;wbs_ack_o&lt;/div&gt;&lt;/div&gt;&lt;/div&gt;&lt;/div&gt;&lt;/div&gt;&lt;/div&gt;&lt;/div&gt;&lt;/div&gt;&lt;/div&gt;" style="text;html=1;strokeColor=none;fillColor=none;align=center;verticalAlign=middle;whiteSpace=wrap;rounded=0;" vertex="1" parent="62">
                    <mxGeometry x="12" width="216" height="30" as="geometry"/>
                </mxCell>
                <mxCell id="64" value="" style="endArrow=classic;html=1;rounded=0;" edge="1" parent="62">
                    <mxGeometry width="50" height="50" relative="1" as="geometry">
                        <mxPoint x="240" y="30" as="sourcePoint"/>
                        <mxPoint y="30" as="targetPoint"/>
                    </mxGeometry>
                </mxCell>
            </root>
        </mxGraphModel>
    </diagram>
</mxfile>